<svg width="37" height="42" viewBox="0 0 37 42" fill="none" xmlns="http://www.w3.org/2000/svg">
<g clip-path="url(#clip0_256_596)">
<path d="M11.5949 0H25.3488C25.3509 0.188125 25.2416 0.335781 25.165 0.493281C24.4092 2.03984 23.6567 3.58859 22.8867 5.12859C22.7434 5.41406 22.7402 5.53984 23.0902 5.63391C32.4625 8.16156 38.3338 17.0778 36.6461 26.6033C35.3095 34.1491 30.7584 39.0327 23.4774 41.3569C22.3825 41.7058 21.2428 41.8403 20.1097 42H16.835C16.7694 41.9836 16.7038 41.9595 16.637 41.953C13.2913 41.6128 10.2134 40.5092 7.55563 38.4508C1.56517 33.81 -1.01608 27.6434 0.363134 20.1972C1.76532 12.6273 6.47282 7.79953 13.86 5.635C14.1652 5.54531 14.2199 5.45234 14.0744 5.16141C13.2978 3.61047 12.5399 2.05078 11.7786 0.493281C11.702 0.335781 11.5927 0.188125 11.5949 0ZM18.4581 12.5027C12.3113 12.5978 7.4747 17.4158 7.47142 23.5364C7.46813 29.6997 12.3528 34.5734 18.4855 34.5647C24.6345 34.5548 29.4656 29.6767 29.4711 23.5495C29.4766 17.3709 24.5744 12.5781 18.4581 12.5027ZM17.2124 38.2703C17.2124 38.0384 17.197 37.8044 17.2156 37.5736C17.2463 37.205 17.1303 37.0059 16.7234 37.0081C16.4817 37.0081 16.2389 36.9414 15.9983 36.8944C12.5781 36.2206 9.8011 34.5002 7.67704 31.7319C7.48345 31.4792 7.32485 31.4519 7.06782 31.6116C6.64017 31.8784 6.20595 32.1377 5.75751 32.3684C5.4447 32.5303 5.42501 32.6791 5.63392 32.9591C6.7386 34.4378 8.03798 35.7088 9.56376 36.7478C11.7611 38.243 14.1881 39.1081 16.8197 39.4155C17.1095 39.4494 17.2222 39.3302 17.2124 39.0491C17.2036 38.7898 17.2102 38.5306 17.2113 38.2703H17.2124ZM19.7334 38.2506H19.7324C19.7324 38.5098 19.7411 38.7702 19.7302 39.0294C19.717 39.3312 19.8341 39.4483 20.1458 39.4122C22.7074 39.1114 25.0764 38.2812 27.2289 36.8484C28.8236 35.7875 30.1853 34.4816 31.3195 32.9372C31.4617 32.7436 31.5788 32.585 31.2725 32.4209C30.7683 32.1497 30.2761 31.8566 29.7839 31.5623C29.5695 31.4344 29.4438 31.5066 29.3059 31.6859C26.9609 34.7342 23.8908 36.528 20.0758 37.0234C19.845 37.053 19.7313 37.1558 19.7334 37.3909C19.7356 37.6775 19.7334 37.9641 19.7334 38.2517V38.2506ZM34.4006 23.2564C34.3656 22.8463 34.3263 22.1506 34.242 21.4605C34.0561 19.9314 33.6263 18.4702 33.0017 17.0636C32.8836 16.7967 32.7458 16.753 32.4997 16.9039C32.0578 17.1741 31.6094 17.4366 31.1533 17.6805C30.8799 17.827 30.8405 17.9911 30.9575 18.2766C32.4002 21.8116 32.3903 25.3477 30.9291 28.875C30.8306 29.1134 30.858 29.2436 31.0877 29.3683C31.5667 29.6275 32.0425 29.8966 32.503 30.1897C32.7709 30.3603 32.888 30.31 33.0149 30.0234C33.9303 27.9584 34.3624 25.7928 34.4006 23.2564ZM4.17048 16.8033C4.00532 16.8306 3.97798 16.9969 3.92001 17.1292C2.88532 19.4972 2.43032 21.9636 2.59657 24.5514C2.71907 26.4698 3.17626 28.2942 3.94079 30.0497C4.06329 30.3297 4.18907 30.345 4.4297 30.1962C4.89345 29.9086 5.36704 29.6373 5.84501 29.3748C6.06376 29.2545 6.12173 29.1353 6.01892 28.8859C4.54892 25.3455 4.54345 21.7973 5.99048 18.2459C6.03642 18.1344 6.10423 18.0228 6.04845 17.8938C6.00251 17.7877 4.30829 16.7912 4.17048 16.8022V16.8033ZM15.2163 7.93953C15.1495 7.95266 15.0828 7.96578 15.0161 7.98C13.405 8.33328 11.8913 8.93266 10.4694 9.76828C8.54985 10.897 6.94095 12.3692 5.62079 14.163C5.44251 14.4058 5.43813 14.548 5.72688 14.6978C6.17423 14.9308 6.61173 15.1834 7.0361 15.4569C7.32704 15.6439 7.49548 15.5991 7.70548 15.3191C8.93704 13.6762 10.4814 12.3966 12.3014 11.4538C13.5078 10.8281 14.7853 10.4059 16.1219 10.1631C16.3188 10.127 16.4905 10.1008 16.3603 9.83719C16.0759 9.26188 15.7927 8.68656 15.5072 8.11234C15.4481 7.99312 15.3628 7.91328 15.2163 7.94062V7.93953ZM21.735 7.94062C21.5414 7.90125 21.4692 8.03906 21.4014 8.17688C21.1345 8.715 20.8753 9.2575 20.603 9.79234C20.475 10.0428 20.5581 10.1227 20.8141 10.1653C21.2166 10.2331 21.6169 10.3206 22.0106 10.4311C24.9441 11.2503 27.3514 12.8636 29.2075 15.2819C29.4591 15.61 29.6505 15.6406 29.9731 15.423C30.3352 15.1802 30.7245 14.98 31.1019 14.7602C31.558 14.4944 31.5645 14.4889 31.2528 14.0733C29.2753 11.433 26.7444 9.54406 23.6272 8.45687C23.0081 8.24141 22.377 8.07187 21.7361 7.94062H21.735ZM18.4789 2.49266C17.6608 2.49266 16.8427 2.50031 16.0245 2.48938C15.6997 2.485 15.6428 2.58563 15.7861 2.87438C16.6228 4.56313 17.4486 6.25625 18.2809 7.94719C18.3258 8.03797 18.3444 8.18234 18.4844 8.17141C18.5916 8.16266 18.6156 8.04344 18.6561 7.96031C19.4928 6.25734 20.3263 4.55109 21.1674 2.85031C21.3074 2.56703 21.2209 2.48828 20.9322 2.49156C20.1141 2.49922 19.2959 2.49375 18.4778 2.49375L18.4789 2.49266Z" fill="#D83A51"/>
<path d="M18.5106 29.727C16.6152 29.727 14.7197 29.7161 12.8253 29.7358C12.413 29.7402 12.2905 29.6155 12.2927 29.202C12.308 26.2237 12.2741 23.2455 12.3255 20.2672C12.3353 19.7159 12.2959 19.1691 12.3014 18.62C12.3178 17.1489 12.9763 16.0377 14.2505 15.3453C15.5433 14.6431 16.8536 14.7186 18.0852 15.5313C18.3838 15.7292 18.5708 15.7303 18.8639 15.5269C20.1152 14.6606 21.7634 14.6759 23.0202 15.528C24.2616 16.3702 24.8905 17.8795 24.5711 19.355C24.5022 19.6744 24.6509 19.9347 24.6509 20.2311C24.6422 23.2367 24.64 26.2423 24.6531 29.248C24.6553 29.6297 24.523 29.7358 24.1577 29.7336C22.2764 29.7194 20.3941 29.727 18.5128 29.727H18.5106ZM17.2113 24.7723C17.2113 24.1041 17.2047 23.4358 17.2145 22.7675C17.2189 22.4831 17.1336 22.3333 16.8208 22.3409C16.2772 22.3541 15.7325 22.3497 15.1878 22.3431C14.9308 22.3398 14.817 22.447 14.8181 22.7084C14.8225 24.0855 14.8225 25.4625 14.8181 26.8406C14.8181 27.1031 14.9341 27.207 15.19 27.2038C15.7205 27.1972 16.252 27.1906 16.7825 27.2059C17.0975 27.2147 17.2233 27.0977 17.2167 26.7761C17.2025 26.1078 17.2123 25.4395 17.2123 24.7712L17.2113 24.7723ZM22.1244 24.7691C22.1244 24.1008 22.1167 23.4325 22.1277 22.7642C22.132 22.4766 22.0391 22.3333 21.7295 22.3409C21.1991 22.3541 20.6675 22.3541 20.137 22.3409C19.8373 22.3333 19.7258 22.4558 19.728 22.7533C19.7367 24.103 19.7367 25.4537 19.728 26.8034C19.7258 27.1097 19.8548 27.2125 20.1458 27.2059C20.6631 27.1939 21.1805 27.1906 21.6967 27.2059C22.0161 27.2158 22.1342 27.09 22.1266 26.7728C22.1123 26.1045 22.1222 25.4362 22.1222 24.768L22.1244 24.7691ZM17.2113 19.0805C17.2167 19.0805 17.2222 19.0805 17.2277 19.0794C17.2091 18.8628 17.2113 18.6419 17.1675 18.4308C17.0406 17.8216 16.4981 17.3873 15.948 17.4366C15.3628 17.4891 14.8772 17.9791 14.8323 18.5631C14.7897 19.1166 15.225 19.6481 15.8331 19.7827C16.17 19.857 16.5113 19.8056 16.8503 19.8209C17.1128 19.833 17.2244 19.7061 17.2123 19.4491C17.2069 19.3266 17.2123 19.2041 17.2123 19.0805H17.2113ZM20.4772 19.8198C20.4772 19.8253 20.4772 19.8308 20.4783 19.8373C20.6948 19.8177 20.9147 19.8188 21.1258 19.775C21.7164 19.6503 22.1386 19.1297 22.1134 18.5872C22.0861 17.9955 21.5731 17.4759 20.9781 17.4355C20.44 17.3994 19.9194 17.8216 19.7761 18.4078C19.6973 18.7316 19.7531 19.0597 19.7302 19.3856C19.7083 19.6963 19.8264 19.8527 20.1513 19.8231C20.2595 19.8133 20.3689 19.822 20.4783 19.822L20.4772 19.8198Z" fill="#D83A51"/>
</g>
<defs>
<clipPath id="clip0_256_596">
<rect width="36.9348" height="42" fill="white"/>
</clipPath>
</defs>
</svg>
