<svg width="65" height="42" viewBox="0 0 65 42" fill="none" xmlns="http://www.w3.org/2000/svg">
<path d="M41.013 5.25H4.557C2.04381 5.25 0 7.3103 0 9.84375V37.4062C0 39.9397 2.04381 42 4.557 42H41.013C43.5262 42 45.57 39.9397 45.57 37.4062V9.84375C45.57 7.3103 43.5262 5.25 41.013 5.25ZM6.8355 15.5859C6.8355 15.2814 6.95553 14.9892 7.16918 14.7739C7.38283 14.5585 7.6726 14.4375 7.97475 14.4375H14.8103C15.1124 14.4375 15.4022 14.5585 15.6158 14.7739C15.8295 14.9892 15.9495 15.2814 15.9495 15.5859V20.1797C15.9495 20.4843 15.8295 20.7764 15.6158 20.9918C15.4022 21.2071 15.1124 21.3281 14.8103 21.3281H7.97475C7.6726 21.3281 7.38283 21.2071 7.16918 20.9918C6.95553 20.7764 6.8355 20.4843 6.8355 20.1797V15.5859ZM20.5065 32.8125H6.8355V28.2188H20.5065V32.8125ZM38.7345 32.8125H25.0635V28.2188H38.7345V32.8125Z" fill="#D83A51"/>
<path d="M59.7188 0H22.9688C20.4353 0 18.375 2.0603 18.375 4.59375V32.1562C18.375 34.6897 20.4353 36.75 22.9688 36.75H59.7188C62.2522 36.75 64.3125 34.6897 64.3125 32.1562V4.59375C64.3125 2.0603 62.2522 0 59.7188 0ZM42.4922 27.5625C40.9693 27.5625 39.5087 26.9575 38.4318 25.8807C37.355 24.8038 36.75 23.3432 36.75 21.8203C36.75 20.2974 37.355 18.8368 38.4318 17.76C39.5087 16.6831 40.9693 16.0781 42.4922 16.0781C43.7386 16.081 44.9494 16.4943 45.9375 17.2541C44.5502 18.3015 43.6406 19.9484 43.6406 21.8203C43.6406 23.6923 44.5502 25.3391 45.9375 26.3865C44.9494 27.1463 43.7386 27.5596 42.4922 27.5625ZM51.6797 27.5625C50.1568 27.5625 48.6962 26.9575 47.6193 25.8807C46.5425 24.8038 45.9375 23.3432 45.9375 21.8203C45.9375 20.2974 46.5425 18.8368 47.6193 17.76C48.6962 16.6831 50.1568 16.0781 51.6797 16.0781C53.2026 16.0781 54.6632 16.6831 55.74 17.76C56.8169 18.8368 57.4219 20.2974 57.4219 21.8203C57.4219 23.3432 56.8169 24.8038 55.74 25.8807C54.6632 26.9575 53.2026 27.5625 51.6797 27.5625Z" fill="#D83A51"/>
<path d="M42.4922 28.0625L42.4933 28.0625C43.8496 28.0594 45.1672 27.6097 46.2423 26.7829L46.7625 26.3828L46.2388 25.9875C44.9679 25.028 44.1406 23.5249 44.1406 21.8203C44.1406 20.1157 44.9679 18.6126 46.2388 17.6532L46.7625 17.2578L46.2423 16.8578C45.1672 16.031 43.8496 15.5813 42.4933 15.5781H42.4922C40.8367 15.5781 39.2489 16.2358 38.0783 17.4064C36.9077 18.5771 36.25 20.1648 36.25 21.8203C36.25 23.4758 36.9077 25.0636 38.0783 26.2342C39.2489 27.4048 40.8367 28.0625 42.4922 28.0625ZM22.9688 0.5H59.7188C61.9761 0.5 63.8125 2.33644 63.8125 4.59375V32.1562C63.8125 34.4136 61.9761 36.25 59.7188 36.25H22.9688C20.7114 36.25 18.875 34.4136 18.875 32.1562V4.59375C18.875 2.33644 20.7114 0.5 22.9688 0.5ZM47.2658 26.2342C48.4364 27.4048 50.0242 28.0625 51.6797 28.0625C53.3352 28.0625 54.9229 27.4048 56.0936 26.2342C57.2642 25.0636 57.9219 23.4758 57.9219 21.8203C57.9219 20.1648 57.2642 18.5771 56.0936 17.4064C54.9229 16.2358 53.3352 15.5781 51.6797 15.5781C50.0242 15.5781 48.4364 16.2358 47.2658 17.4064C46.0952 18.5771 45.4375 20.1648 45.4375 21.8203C45.4375 23.4758 46.0952 25.0636 47.2658 26.2342Z" stroke="black" stroke-opacity="0.8"/>
</svg>
