<svg width="42" height="42" viewBox="0 0 42 42" fill="none" xmlns="http://www.w3.org/2000/svg">
<g clip-path="url(#clip0_265_653)">
<path d="M42 19.2774V22.7227C41.872 23.7103 41.7616 24.7002 41.5286 25.6714C41.3995 26.2085 41.3798 26.2194 40.8942 25.9361C39.3236 25.0217 37.7573 24.1008 36.1812 23.1952C35.2833 22.6789 34.4805 23.0267 34.2442 24.0264C33.6077 26.7214 32.2853 29.0183 30.2761 30.9236C29.4842 31.675 29.5794 32.4789 30.5069 33.0772C32.0228 34.055 33.5355 35.0372 35.0481 36.0194C35.4331 36.2699 35.4353 36.307 35.1017 36.6089C32.7928 38.6903 30.158 40.1986 27.1873 41.1185C26.7302 41.2595 26.7116 41.2453 26.7105 40.7499C26.7094 38.9594 26.7116 37.1689 26.7094 35.3785C26.7072 34.1797 26.0411 33.6766 24.897 34.0113C22.2983 34.7725 19.6995 34.7692 17.1008 34.0113C15.9611 33.6788 15.2906 34.1841 15.2895 35.3806C15.2873 37.1438 15.2895 38.9069 15.2895 40.67C15.2895 41.2639 15.283 41.2694 14.7306 41.0944C11.7819 40.1592 9.15797 38.6575 6.86547 36.5772C6.55995 36.3001 6.57891 36.0566 6.92234 35.8466C8.47547 34.9027 10.0341 33.9675 11.5806 33.0127C12.4009 32.5063 12.4786 31.6685 11.7928 30.987C11.7152 30.9105 11.6353 30.835 11.5566 30.7596C9.65563 28.9111 8.40328 26.6908 7.77547 24.1183C7.5075 23.0191 6.79547 22.6844 5.78812 23.1985C4.19344 24.0111 2.60094 24.8292 1.00734 25.643C0.540313 25.8814 0.512969 25.8639 0.398125 25.351C0.211094 24.511 0.127969 23.6535 0 22.8047V19.2774C0.121406 18.3575 0.216563 17.4344 0.427656 16.5277C0.527552 16.0975 0.764896 15.9874 1.13969 16.1974C2.72672 17.0833 4.31047 17.978 5.90406 18.8519C6.72219 19.3003 7.52719 18.9438 7.73828 18.0371C8.38141 15.2808 9.73 12.938 11.7983 11.0086C11.9602 10.8577 12.0969 10.6892 12.1723 10.477C12.3878 9.87549 12.1691 9.32752 11.5347 8.96658C9.91812 8.04893 8.29391 7.14439 6.67406 6.23221C6.27047 6.00471 6.265 5.97517 6.60516 5.65689C8.98297 3.43877 11.7184 1.83533 14.8291 0.8783C15.2677 0.743768 15.2863 0.760175 15.2873 1.2283C15.2895 3.01877 15.2873 4.81033 15.2884 6.6008C15.2895 7.82361 15.9534 8.32017 17.1237 7.98002C19.7105 7.22971 22.2961 7.22752 24.8828 7.9833C26.0312 8.31908 26.7061 7.82033 26.7072 6.63033C26.7105 4.85299 26.7072 3.07564 26.7083 1.2983C26.7083 0.736112 26.7192 0.728456 27.2562 0.899081C30.2072 1.83314 32.8311 3.33596 35.1258 5.41299C35.502 5.75424 35.502 5.78049 35.0733 6.05064C33.5475 7.01314 32.0206 7.97455 30.4927 8.93486C29.5816 9.50799 29.482 10.3272 30.2553 11.0589C32.2787 12.973 33.6088 15.2808 34.2453 17.9922C34.4389 18.8147 35.0962 19.2172 35.8323 18.9711C36.0117 18.911 36.178 18.8092 36.3442 18.7152C37.8788 17.8467 39.4122 16.9761 40.9467 16.1077C41.3809 15.8616 41.4127 15.878 41.5319 16.368C41.7648 17.325 41.8688 18.3028 41.9967 19.2774H42ZM20.9989 32.2864C27.2967 32.1967 32.3148 27.2825 32.2448 21.0831C32.1639 13.9617 27.0561 9.83392 21.0427 9.81096C15.0259 9.78799 9.84047 13.9049 9.75516 21.081C9.68188 27.265 14.6956 32.1956 21 32.2864H20.9989Z" fill="#D83A51"/>
<path d="M22.8047 0C23.182 0.0503125 23.5594 0.106094 23.9378 0.149844C24.1959 0.180469 24.3173 0.293125 24.3151 0.573125C24.3053 2.04859 24.3064 3.52406 24.313 4.99844C24.3141 5.29922 24.1948 5.3725 23.9105 5.32109C21.9712 4.97 20.0298 4.96234 18.0906 5.32766C17.8128 5.38016 17.6826 5.30797 17.6848 5.00281C17.6914 3.52734 17.6925 2.05187 17.6826 0.5775C17.6805 0.295313 17.8073 0.187031 18.0611 0.155312C18.4406 0.108281 18.818 0.0525 19.1953 0C20.3984 0 21.6016 0 22.8047 0Z" fill="#D83A51"/>
<path d="M19.2774 42C18.8858 41.9497 18.4942 41.8939 18.1016 41.8512C17.8128 41.8195 17.6783 41.6992 17.6816 41.3798C17.6958 39.9317 17.6947 38.4847 17.6838 37.0366C17.6816 36.6909 17.8172 36.6176 18.1333 36.6756C20.0452 37.0322 21.9592 37.0311 23.8711 36.68C24.1938 36.6209 24.3195 36.7008 24.3174 37.042C24.3064 38.5033 24.3075 39.9645 24.3174 41.4258C24.3195 41.7047 24.1981 41.8206 23.94 41.8491C23.5342 41.895 23.1295 41.9486 22.7238 41.9989H19.2785L19.2774 42Z" fill="#D83A51"/>
<path d="M40.6109 13.4006C40.6207 13.5756 40.5059 13.638 40.4009 13.697C39.0961 14.4408 37.789 15.1802 36.4853 15.9261C36.2611 16.0541 36.1462 16.0059 36.062 15.7642C35.3839 13.837 34.3853 12.0925 33.0422 10.5514C32.8573 10.3392 32.9 10.2113 33.1264 10.0713C34.3776 9.29141 35.6256 8.505 36.8714 7.71531C37.0606 7.595 37.2017 7.57094 37.3603 7.76891C38.6957 9.43031 39.7709 11.2438 40.5551 13.2267C40.5803 13.2902 40.5978 13.3558 40.612 13.3995L40.6109 13.4006Z" fill="#D83A51"/>
<path d="M5.69625 16.0158C5.60984 15.9742 5.50922 15.9305 5.41515 15.878C4.1639 15.1801 2.91593 14.4747 1.65922 13.7856C1.39125 13.6391 1.3289 13.4936 1.44703 13.2005C2.18531 11.3794 3.15437 9.6939 4.34875 8.1353C4.54125 7.88374 4.70531 7.83015 4.99406 7.9953C6.24859 8.71608 7.51297 9.42046 8.77953 10.1194C9.04968 10.2681 9.09781 10.3917 8.88234 10.6422C7.58187 12.1461 6.62047 13.8491 5.94781 15.7183C5.90406 15.8408 5.88984 15.9939 5.69515 16.0147L5.69625 16.0158Z" fill="#D83A51"/>
<path d="M4.86498 34.3088C4.70748 34.3219 4.64405 34.2267 4.57623 34.1425C3.20905 32.4363 2.12842 30.5659 1.34311 28.5228C1.25014 28.28 1.30373 28.1487 1.53014 28.0328C2.8317 27.3711 4.13108 26.7061 5.42608 26.0313C5.69623 25.8902 5.83514 25.9295 5.93905 26.2292C6.60514 28.1455 7.60045 29.8747 8.92717 31.4114C9.09342 31.6039 9.12842 31.7439 8.87576 31.8959C7.58951 32.6692 6.30873 33.4523 5.02467 34.23C4.9667 34.265 4.90326 34.2891 4.86389 34.3077L4.86498 34.3088Z" fill="#D83A51"/>
<path d="M37.0267 34.4564C36.9535 34.417 36.866 34.3777 36.7861 34.3263C35.5699 33.5399 34.3602 32.7447 33.1374 31.9692C32.8399 31.7811 32.8694 31.6422 33.0761 31.4038C34.3525 29.9338 35.3161 28.2778 35.9844 26.4491C36.1758 25.9274 36.1802 25.9263 36.6614 26.2063C37.8547 26.8986 39.0425 27.6008 40.2424 28.2822C40.5442 28.4539 40.6339 28.6103 40.4885 28.9581C39.701 30.8514 38.6707 32.597 37.3844 34.1917C37.2936 34.3044 37.2182 34.4488 37.0257 34.4575L37.0267 34.4564Z" fill="#D83A51"/>
<path d="M20.9847 12.1089C25.8912 12.1067 29.9097 16.0475 29.8845 20.8906C29.8572 26.0028 26.2533 29.8419 20.9956 29.8408C15.7894 29.8408 12.1395 26.0378 12.1155 20.8808C12.0925 16.0595 16.1087 12.1111 20.9847 12.1089Z" fill="#D83A51"/>
</g>
<defs>
<clipPath id="clip0_265_653">
<rect width="42" height="42" fill="white"/>
</clipPath>
</defs>
</svg>
