<svg width="38" height="42" viewBox="0 0 38 42" fill="none" xmlns="http://www.w3.org/2000/svg">
<path d="M17.9308 41.751C18.5498 42.0844 19.3268 42.0823 19.9459 41.7489C36.8165 32.6084 38.0146 14.75 37.9999 9.67222C37.9983 9.26411 37.8787 8.86532 37.6558 8.5247C37.4329 8.18409 37.1163 7.91643 36.7449 7.7545L19.7943 0.181324C19.5245 0.0613964 19.2329 -0.0003641 18.9381 1.61473e-06C18.6433 0.00036733 18.3518 0.0628511 18.0824 0.183447L1.2497 7.75663C0.883728 7.91864 0.571648 8.18334 0.350639 8.5192C0.129629 8.85507 0.00900856 9.24793 0.00314618 9.65098C-0.0684464 14.7033 0.940167 32.5999 17.9308 41.751ZM12.0054 17.4111L16.8337 22.2807L25.8733 13.1636L28.8508 16.1666L16.8337 28.2866L9.02803 20.414L12.0054 17.4111Z" fill="#D83A51"/>
</svg>
