<svg width="42" height="42" viewBox="0 0 42 42" fill="none" xmlns="http://www.w3.org/2000/svg">
<g clip-path="url(#clip0_256_601)">
<path d="M29.0443 0C30.0211 0.408458 30.4164 1.13229 30.3967 2.1945C30.3551 4.43391 30.3847 6.6744 30.3836 8.9149C30.3836 9.06492 30.3945 9.21823 30.3672 9.36497C30.3058 9.70334 30.0846 9.89169 29.7463 9.91578C29.4331 9.93769 29.1451 9.67378 29.1046 9.34416C29.0881 9.20947 29.0947 9.07149 29.0947 8.93461C29.0947 6.69411 29.0947 4.45471 29.0947 2.21421C29.0947 1.463 28.8932 1.25932 28.1529 1.25932C22.6754 1.25932 17.1979 1.25823 11.7205 1.25932C11.0021 1.25932 10.7973 1.46738 10.7962 2.19012C10.794 4.01997 10.7962 5.85091 10.794 7.68076C10.794 7.82969 10.8006 7.98738 10.7601 8.12755C10.6681 8.44074 10.4338 8.60609 10.1129 8.582C9.75372 8.55462 9.51719 8.33452 9.52047 7.97095C9.52376 7.6063 9.37483 7.61396 9.09668 7.68952C6.71273 8.33671 4.3255 8.97403 1.94045 9.61574C1.36883 9.76905 1.22428 10.0089 1.3754 10.5739C2.7278 15.6232 4.08349 20.6726 5.43808 25.7208C6.18382 28.5023 6.92955 31.2848 7.67529 34.0663C7.69281 34.132 7.71143 34.1977 7.72895 34.2634C7.90416 34.9018 8.12865 35.0354 8.77364 34.8635C10.3297 34.4485 11.8847 34.0279 13.4397 33.6107C13.5317 33.5855 13.6237 33.5571 13.7167 33.5385C14.0913 33.464 14.4187 33.6502 14.5238 33.9929C14.6224 34.316 14.4691 34.6565 14.1099 34.7759C13.5536 34.9598 12.9831 35.1033 12.4169 35.2566C11.3229 35.5523 10.2279 35.8414 9.13391 36.1359C7.72786 36.5148 6.82333 35.9925 6.44663 34.5875C4.33754 26.7173 2.22626 18.8471 0.116081 10.9769C-0.250765 9.60807 0.256249 8.70027 1.6207 8.33013C4.07144 7.66543 6.52329 7.00621 8.98061 6.36888C9.38249 6.26485 9.52923 6.10059 9.51828 5.6768C9.48871 4.51603 9.54456 3.35308 9.49748 2.1945C9.45367 1.1301 9.87199 0.407363 10.8477 0H29.0454L29.0443 0Z" fill="#D83A51"/>
<path d="M41.9956 16.4763C41.5675 18.0422 41.1316 19.6071 40.7111 21.1752C39.4189 25.9869 38.1312 30.8008 36.8412 35.6136C36.8237 35.6793 36.8028 35.745 36.7788 35.8085C36.6386 36.1874 36.3221 36.3801 35.9903 36.2903C35.6322 36.1929 35.422 35.8567 35.5216 35.4559C35.7319 34.6083 35.9662 33.7662 36.1929 32.9219C37.6745 27.3973 39.1572 21.8728 40.6388 16.3493C40.8031 15.7371 40.675 15.5094 40.0409 15.3396C35.5851 14.1416 31.1282 12.948 26.6713 11.7544C25.7876 11.5179 24.905 11.2791 24.0191 11.0503C23.3697 10.8827 23.1617 11.0108 22.9854 11.6646C22.5561 13.259 22.1279 14.8545 21.6976 16.45C21.6549 16.6077 21.622 16.772 21.5508 16.9176C21.403 17.222 21.1468 17.3688 20.8117 17.2943C20.4733 17.2198 20.3112 16.9778 20.3167 16.6351C20.3189 16.5135 20.3463 16.3909 20.3769 16.2737C20.8303 14.572 21.2825 12.8703 21.7447 11.1707C22.0754 9.95411 23.0401 9.41534 24.2666 9.74386C29.5809 11.1663 34.8931 12.5965 40.2107 14.0026C41.032 14.2194 41.6605 14.6103 41.9934 15.4119V16.4774L41.9956 16.4763Z" fill="#D83A51"/>
<path d="M10.7962 18.5712C10.7962 21.1938 10.7962 23.8176 10.7962 26.4403C10.7962 27.29 10.9462 27.4368 11.8004 27.4368C13.4945 27.4368 15.1885 27.4247 16.8826 27.4466C17.2702 27.4521 17.4301 27.3284 17.5276 26.956C18.2054 24.3673 18.9041 21.7852 19.5961 19.2008C19.6213 19.1088 19.6443 19.0157 19.6772 18.926C19.8173 18.5525 20.1448 18.3642 20.4755 18.4616C20.8248 18.5646 21.0219 18.8734 20.9343 19.2632C20.8128 19.8097 20.6573 20.3473 20.5127 20.8883C19.2424 25.6212 17.9722 30.354 16.7008 35.088C16.6723 35.1931 16.6417 35.2982 16.6209 35.4055C16.5201 35.9202 16.6482 36.1458 17.1585 36.2849C18.5942 36.6758 20.0331 37.0558 21.4698 37.4402C25.3463 38.4794 29.2228 39.5175 33.0983 40.5589C33.9513 40.7878 34.1145 40.6958 34.3422 39.8373C34.4988 39.2437 34.6554 38.6491 34.8274 38.06C34.962 37.6 35.2665 37.392 35.6257 37.4851C36.0177 37.5858 36.2082 37.9231 36.0911 38.3929C35.8961 39.1736 35.7001 39.9566 35.457 40.7243C35.1482 41.6989 34.1714 42.2004 33.1212 41.9266C30.9027 41.3473 28.6895 40.7451 26.4742 40.1526C23.3226 39.3094 20.171 38.4662 17.0184 37.623C16.5672 37.5026 16.1149 37.3734 15.7864 37.0153C15.309 36.4973 15.1305 35.8896 15.3144 35.1975C15.8226 33.2844 16.335 31.3724 16.8442 29.4604C16.9654 29.0049 16.7964 28.7768 16.3372 28.776C14.7658 28.776 13.1955 28.7782 11.6241 28.7749C10.955 28.7738 10.3538 28.5997 9.91579 28.0489C9.64312 27.7062 9.50077 27.3196 9.50405 26.8761C9.51062 25.9201 9.4931 24.963 9.51172 24.007C9.51829 23.6982 9.41316 23.5055 9.16896 23.3248C8.09799 22.532 7.11791 21.6461 6.44773 20.4678C5.39866 18.6226 5.60016 16.5727 6.96351 15.2148C7.57455 14.6059 8.31591 14.2457 9.15801 14.1066C9.44054 14.0595 9.51172 13.9401 9.50953 13.6773C9.49857 12.6523 9.50405 11.6285 9.50624 10.6035C9.50734 10.0527 9.74934 9.73838 10.1589 9.74386C10.5674 9.75043 10.7929 10.0581 10.794 10.6199C10.7951 13.27 10.794 15.92 10.794 18.5712H10.7962ZM9.50734 18.6467C9.50734 17.7192 9.50953 16.7906 9.50734 15.8631C9.50624 15.4152 9.42959 15.3637 8.99704 15.4929C7.59536 15.9123 6.80472 17.3929 7.2099 18.8449C7.53513 20.0123 8.28306 20.8828 9.18867 21.6395C9.26533 21.7041 9.33322 21.8465 9.45368 21.7764C9.55771 21.7151 9.50624 21.576 9.50624 21.472C9.50953 20.5302 9.50843 19.5885 9.50843 18.6467H9.50734Z" fill="#D83A51"/>
<path d="M26.5881 29.8163C24.5152 30.0605 22.9405 29.2108 22.2451 27.4893C21.6811 26.0942 22.0326 24.8053 22.7882 23.5931C23.534 22.3973 24.6301 21.5519 25.7602 20.7558C27.1685 19.7637 28.66 18.9051 30.181 18.0992C30.6672 17.8418 30.9552 17.901 31.2268 18.3434C32.4346 20.3112 33.6107 22.2966 34.4036 24.479C34.8635 25.7449 35.0902 27.0371 34.754 28.3741C34.0619 31.1249 30.9892 32.2003 28.7322 30.4876C28.6786 30.4471 28.6271 30.4044 28.5735 30.3628C28.4464 30.4449 28.5264 30.5391 28.5417 30.6201C28.6501 31.2016 28.8582 31.7458 29.121 32.2759C29.3006 32.6361 29.5119 32.8978 29.9401 32.9909C30.3781 33.0873 30.5577 33.441 30.4438 33.8243C30.342 34.1703 30.0003 34.3532 29.5864 34.2437C27.6207 33.7224 25.6573 33.1957 23.696 32.6613C23.281 32.5485 23.0675 32.2156 23.1485 31.8762C23.2394 31.4973 23.5854 31.2651 24.0059 31.402C24.4429 31.5444 24.7626 31.4031 25.1065 31.1742C25.6551 30.8085 26.149 30.3891 26.5881 29.8163ZM23.3161 25.7997C23.3226 27.6416 24.6389 28.7519 26.1402 28.5187C26.656 28.4388 27.094 28.211 27.4981 27.8923C27.9887 27.5058 28.4278 27.6251 28.6676 28.1935C28.7366 28.3566 28.8067 28.5209 28.8943 28.6742C29.4254 29.6028 30.4405 30.1142 31.4403 29.962C32.4697 29.8054 33.2088 29.0947 33.4815 28.0325C33.6885 27.2243 33.602 26.4326 33.3775 25.6496C32.7664 23.5121 31.6407 21.6209 30.5281 19.7232C30.3978 19.5009 30.2533 19.5534 30.0857 19.652C29.2502 20.1437 28.4037 20.6167 27.5824 21.1314C26.483 21.8213 25.4131 22.5583 24.5184 23.5143C23.8296 24.2501 23.3292 25.078 23.315 25.7986L23.3161 25.7997ZM27.6646 32.3624C27.5441 31.9681 27.4477 31.6451 27.3437 31.3242C27.3174 31.2454 27.2933 31.0943 27.1597 31.2093C26.8794 31.4502 26.6133 31.7075 26.3001 31.9966C26.7808 32.1258 27.186 32.2342 27.6635 32.3624H27.6646Z" fill="#D83A51"/>
<path d="M27.3262 5.39318C27.3087 5.57605 27.2309 5.73374 27.1247 5.87829C26.6078 6.58242 26.0953 7.28983 25.5697 7.98629C25.1941 8.48454 24.7418 8.48344 24.3618 7.9819C23.8351 7.28545 23.3259 6.57585 22.8079 5.87282C22.5659 5.5443 22.567 5.22454 22.8123 4.89493C23.3336 4.19409 23.8395 3.4823 24.3651 2.78474C24.7287 2.30291 25.1886 2.29087 25.5522 2.76613C26.1074 3.49215 26.6385 4.23679 27.1783 4.97487C27.2681 5.09751 27.324 5.23659 27.3262 5.39318ZM25.8106 5.41837C25.7099 5.13693 25.5215 4.95077 25.3704 4.74381C24.9685 4.1919 24.9652 4.19409 24.5754 4.72081C24.2476 5.16395 24.2458 5.60416 24.5699 6.04146C24.8371 6.40137 25.1032 6.39881 25.3682 6.03379C25.5193 5.82573 25.6683 5.61548 25.8095 5.41727L25.8106 5.41837Z" fill="#D83A51"/>
<path d="M17.2637 5.37894C17.2757 5.58372 17.1772 5.74688 17.0633 5.90238C16.5552 6.59555 16.0525 7.2942 15.5335 7.97862C15.1425 8.49439 14.6957 8.48454 14.3004 7.95781C13.7923 7.28106 13.2919 6.59884 12.7958 5.91443C12.4804 5.47969 12.487 5.28805 12.8089 4.84674C13.2995 4.17437 13.7857 3.49872 14.2862 2.83292C14.7078 2.27225 15.1524 2.27882 15.5762 2.84497C16.0744 3.51186 16.5628 4.18532 17.0545 4.85769C17.1673 5.01209 17.2768 5.17088 17.2648 5.37785L17.2637 5.37894ZM14.8337 6.48057C14.9848 6.49152 15.0232 6.43239 15.0713 6.3853C15.8215 5.6538 15.8412 5.42822 15.2279 4.60145C15.2038 4.56859 15.1743 4.53793 15.1557 4.50289C15.0045 4.22365 14.8808 4.24993 14.6946 4.49632C13.9796 5.44136 13.9752 5.48078 14.7527 6.35574C14.7976 6.40611 14.8271 6.47072 14.8337 6.48057Z" fill="#D83A51"/>
<path d="M14.8928 26.2848C14.6738 26.2694 14.4931 26.1599 14.3563 25.9738C13.8153 25.2368 13.2754 24.4987 12.7334 23.7617C12.5078 23.4551 12.5264 23.1584 12.7487 22.8583C13.2765 22.1454 13.7934 21.4238 14.3289 20.7175C14.7045 20.2225 15.1589 20.2335 15.5378 20.7383C16.0536 21.426 16.5573 22.1235 17.0709 22.8123C17.3261 23.154 17.3283 23.4825 17.0742 23.8253C16.5617 24.5162 16.0547 25.2105 15.5477 25.9048C15.3867 26.1249 15.194 26.2826 14.8917 26.2837L14.8928 26.2848ZM14.9564 22.2199C14.849 22.2221 14.8173 22.2856 14.7713 22.3338C13.9719 23.1901 13.9686 23.2525 14.6848 24.191C14.7264 24.2447 14.7658 24.3005 14.8074 24.3542C14.8534 24.4122 14.9235 24.4604 14.9793 24.4002C15.2772 24.0815 15.528 23.7256 15.747 23.3489C15.7678 23.3128 15.7207 23.2197 15.6846 23.1682C15.4886 22.8901 15.2871 22.6152 15.0834 22.3414C15.0451 22.2889 14.9892 22.2506 14.9553 22.2188L14.9564 22.2199Z" fill="#D83A51"/>
<path d="M14.9148 17.3151C14.6629 17.302 14.48 17.1717 14.3366 16.9757C13.8109 16.2617 13.2864 15.5466 12.7575 14.8337C12.5242 14.5194 12.5133 14.2117 12.7476 13.8941C13.282 13.1692 13.8044 12.4355 14.3486 11.7183C14.6848 11.2737 15.1327 11.2594 15.4776 11.704C16.047 12.4366 16.5858 13.1922 17.1279 13.9445C17.3239 14.2161 17.3217 14.5096 17.1213 14.7833C16.5749 15.5335 16.023 16.2792 15.471 17.0249C15.3342 17.2111 15.1502 17.3173 14.9126 17.3151H14.9148ZM15.7459 14.3508C15.5926 13.9971 15.321 13.7233 15.1097 13.4101C14.9805 13.2185 14.8644 13.2251 14.7384 13.4101C14.6782 13.4999 14.6103 13.5853 14.5446 13.6729C14.2146 14.1183 14.2132 14.5698 14.5402 15.0275C14.9224 15.5619 14.9279 15.5663 15.3013 15.0385C15.4568 14.8195 15.655 14.6256 15.7437 14.3497L15.7459 14.3508Z" fill="#D83A51"/>
</g>
<defs>
<clipPath id="clip0_256_601">
<rect width="41.9956" height="42" fill="white"/>
</clipPath>
</defs>
</svg>
