<svg width="56" height="56" viewBox="0 0 56 56" fill="none" xmlns="http://www.w3.org/2000/svg">
<path d="M0.101237 35.4776C0.294406 36.1855 0.757368 36.7894 1.39075 37.1598L6.74504 40.2718V46.4397C6.74504 47.1833 7.04039 47.8964 7.5661 48.4221C8.09182 48.9479 8.80485 49.2433 9.54833 49.2433H15.7156L18.8272 54.5982C19.0718 55.0219 19.4231 55.3743 19.846 55.6202C20.2689 55.8661 20.7488 55.997 21.2381 56C21.7412 55.9999 22.235 55.8643 22.6677 55.6075L27.994 52.5235L33.3483 55.6075C33.6666 55.794 34.0185 55.9159 34.384 55.9661C34.7495 56.0163 35.1212 55.9939 35.478 55.9002C35.8348 55.8064 36.1696 55.6431 36.4632 55.4197C36.7567 55.1963 37.0033 54.9171 37.1888 54.5982L40.2724 49.2433H46.4397C47.1831 49.2433 47.8962 48.9479 48.4219 48.4221C48.9476 47.8964 49.243 47.1833 49.243 46.4397V40.2718L54.5972 37.1598C55.2384 36.7899 55.7074 36.1814 55.9017 35.4671C56.096 34.7528 55.9999 33.9906 55.6345 33.3468L52.5228 27.9639L55.6345 22.609C55.9999 21.9653 56.096 21.2031 55.9017 20.4888C55.7074 19.7744 55.2384 19.166 54.5972 18.7961L49.243 15.7121V9.54421C49.243 8.80065 48.9476 8.08754 48.4219 7.56176C47.8962 7.03598 47.1831 6.7406 46.4397 6.7406H40.2724L37.1888 1.38571C36.8119 0.746416 36.197 0.282643 35.4788 0.0960487C35.1227 0.000347522 34.7512 -0.02415 34.3856 0.023959C34.02 0.072068 33.6675 0.191839 33.3483 0.37641L27.966 3.46038L22.6397 0.37641C21.9994 0.00854344 21.2398 -0.0917988 20.526 0.0971811C19.8122 0.286161 19.2017 0.749198 18.8272 1.38571L15.7156 6.7406H9.54833C8.80485 6.7406 8.09182 7.03598 7.5661 7.56176C7.04039 8.08754 6.74504 8.80065 6.74504 9.54421V15.7121L1.41878 18.7961C1.09756 18.9793 0.815746 19.2242 0.589564 19.5167C0.363382 19.8093 0.197304 20.1437 0.100896 20.5007C0.00448751 20.8577 -0.0203468 21.2303 0.0278231 21.5969C0.075993 21.9636 0.196215 22.3171 0.381566 22.6371L3.46519 27.9639L0.381566 33.3188C0.193284 33.6418 0.0714881 33.9991 0.0233458 34.3699C-0.0247966 34.7406 0.00168638 35.1172 0.101237 35.4776ZM9.12784 26.5902L6.63291 22.3567L10.978 19.8335C11.3965 19.5853 11.7432 19.2325 11.984 18.8098C12.2249 18.387 12.3515 17.9089 12.3516 17.4223V12.3478H17.3415C17.8355 12.3498 18.3212 12.2212 18.7494 11.975C19.1777 11.7288 19.5334 11.3739 19.7803 10.946L22.3594 6.62846L26.6764 9.12367C27.1026 9.36974 27.586 9.49928 28.0781 9.49928C28.5702 9.49928 29.0536 9.36974 29.4797 9.12367L33.8248 6.62846L36.3758 10.946C36.6228 11.3739 36.9785 11.7288 37.4067 11.975C37.835 12.2212 38.3207 12.3498 38.8147 12.3478H43.7765V17.3382C43.7795 17.8275 43.9104 18.3075 44.1563 18.7305C44.4022 19.1535 44.7545 19.5047 45.1782 19.7493L49.4952 22.2726L47.0003 26.5902C46.7543 27.0164 46.6247 27.4998 46.6247 27.992C46.6247 28.4841 46.7543 28.9676 47.0003 29.3938L49.4952 33.7113L45.1782 36.2346C44.7545 36.4792 44.4022 36.8305 44.1563 37.2534C43.9104 37.6764 43.7795 38.1564 43.7765 38.6457V43.6361H38.6465C38.1573 43.639 37.6774 43.77 37.2544 44.0159C36.8315 44.2618 36.4803 44.6142 36.2357 45.0379L33.7407 49.3554L29.3956 46.8602C28.9695 46.6142 28.4861 46.4846 27.994 46.4846C27.5019 46.4846 27.0185 46.6142 26.5923 46.8602L22.3594 49.3554L19.8644 45.0379C19.6175 44.61 19.2618 44.2551 18.8335 44.0089C18.4053 43.7627 17.9196 43.6341 17.4256 43.6361H12.3516V38.6457C12.328 38.1831 12.1902 37.7336 11.9505 37.3373C11.7108 36.9411 11.3767 36.6103 10.978 36.3747L6.63291 33.8515L9.12784 29.5339C9.40073 29.0915 9.54524 28.5819 9.54524 28.062C9.54524 27.5422 9.40073 27.0326 9.12784 26.5902Z" fill="#D83A51"/>
<path d="M37 20H34V19C34 18.7348 33.8946 18.4804 33.7071 18.2929C33.5196 18.1054 33.2652 18 33 18H23C22.7348 18 22.4804 18.1054 22.2929 18.2929C22.1054 18.4804 22 18.7348 22 19V20H19C18.7348 20 18.4804 20.1054 18.2929 20.2929C18.1054 20.4804 18 20.7348 18 21V24C18 28.31 19.8 30.91 22.82 31C23.2606 31.762 23.8635 32.4176 24.5859 32.9205C25.3083 33.4234 26.1325 33.7612 27 33.91V36H25V38H31V36H29V33.91C29.8675 33.7612 30.6917 33.4234 31.4141 32.9205C32.1365 32.4176 32.7394 31.762 33.18 31C36.18 30.9 38 28.3 38 24V21C38 20.7348 37.8946 20.4804 37.7071 20.2929C37.5196 20.1054 37.2652 20 37 20ZM20 24V22H22V28.83C20.22 28.08 20 25.3 20 24ZM34 28.83V22H36V24C36 25.3 35.78 28.08 34 28.83Z" fill="#D83A51"/>
</svg>
