<svg width="290" height="42" viewBox="0 0 290 42" fill="none" xmlns="http://www.w3.org/2000/svg">
<g clip-path="url(#clip0_265_630)">
<path d="M42 19.2774V22.7227C41.872 23.7103 41.7616 24.7002 41.5286 25.6714C41.3995 26.2085 41.3798 26.2194 40.8942 25.9361C39.3236 25.0217 37.7573 24.1008 36.1812 23.1952C35.2833 22.6789 34.4805 23.0267 34.2442 24.0264C33.6077 26.7214 32.2853 29.0183 30.2761 30.9236C29.4842 31.675 29.5794 32.4789 30.5069 33.0772C32.0228 34.055 33.5355 35.0372 35.0481 36.0194C35.4331 36.2699 35.4353 36.307 35.1017 36.6089C32.7928 38.6903 30.158 40.1986 27.1873 41.1185C26.7302 41.2595 26.7116 41.2453 26.7105 40.7499C26.7094 38.9594 26.7116 37.1689 26.7094 35.3785C26.7072 34.1797 26.0411 33.6766 24.897 34.0113C22.2983 34.7725 19.6995 34.7692 17.1008 34.0113C15.9611 33.6788 15.2906 34.1841 15.2895 35.3806C15.2873 37.1438 15.2895 38.9069 15.2895 40.67C15.2895 41.2639 15.283 41.2694 14.7306 41.0944C11.7819 40.1592 9.15797 38.6575 6.86547 36.5772C6.55995 36.3001 6.57891 36.0566 6.92234 35.8466C8.47547 34.9027 10.0341 33.9675 11.5806 33.0127C12.4009 32.5063 12.4786 31.6685 11.7928 30.987C11.7152 30.9105 11.6353 30.835 11.5566 30.7596C9.65563 28.9111 8.40328 26.6908 7.77547 24.1183C7.5075 23.0191 6.79547 22.6844 5.78813 23.1985C4.19344 24.0111 2.60094 24.8292 1.00734 25.643C0.540313 25.8814 0.512969 25.8639 0.398125 25.351C0.211094 24.511 0.127969 23.6535 0 22.8047V19.2774C0.121406 18.3575 0.216563 17.4344 0.427656 16.5277C0.527552 16.0975 0.764896 15.9874 1.13969 16.1974C2.72672 17.0833 4.31047 17.978 5.90406 18.8519C6.72219 19.3003 7.52719 18.9438 7.73828 18.0371C8.38141 15.2808 9.73 12.938 11.7983 11.0086C11.9602 10.8577 12.0969 10.6892 12.1723 10.477C12.3878 9.87549 12.1691 9.32752 11.5347 8.96658C9.91813 8.04892 8.29391 7.14439 6.67406 6.23221C6.27047 6.00471 6.265 5.97517 6.60516 5.65689C8.98297 3.43877 11.7184 1.83533 14.8291 0.8783C15.2677 0.743768 15.2863 0.760175 15.2873 1.2283C15.2895 3.01877 15.2873 4.81033 15.2884 6.6008C15.2895 7.82361 15.9534 8.32017 17.1237 7.98002C19.7105 7.22971 22.2961 7.22752 24.8828 7.9833C26.0312 8.31908 26.7061 7.82033 26.7072 6.63033C26.7105 4.85299 26.7072 3.07564 26.7083 1.2983C26.7083 0.736112 26.7192 0.728456 27.2563 0.899081C30.2072 1.83314 32.8311 3.33596 35.1258 5.41299C35.502 5.75424 35.502 5.78049 35.0733 6.05064C33.5475 7.01314 32.0206 7.97455 30.4927 8.93486C29.5816 9.50799 29.482 10.3272 30.2553 11.0589C32.2787 12.973 33.6087 15.2808 34.2453 17.9922C34.4389 18.8147 35.0962 19.2172 35.8323 18.9711C36.0117 18.911 36.178 18.8092 36.3442 18.7152C37.8787 17.8467 39.4122 16.9761 40.9467 16.1077C41.3809 15.8616 41.4127 15.878 41.5319 16.368C41.7648 17.325 41.8688 18.3028 41.9967 19.2774H42ZM20.9989 32.2864C27.2967 32.1967 32.3148 27.2825 32.2448 21.0831C32.1639 13.9617 27.0561 9.83392 21.0427 9.81096C15.0259 9.78799 9.84047 13.9049 9.75516 21.081C9.68188 27.265 14.6956 32.1956 21 32.2864H20.9989Z" fill="#D83A51"/>
<path d="M22.8047 0C23.182 0.0503125 23.5594 0.106094 23.9378 0.149844C24.1959 0.180469 24.3173 0.293125 24.3151 0.573125C24.3053 2.04859 24.3064 3.52406 24.313 4.99844C24.3141 5.29922 24.1948 5.3725 23.9105 5.32109C21.9712 4.97 20.0298 4.96234 18.0906 5.32766C17.8128 5.38016 17.6826 5.30797 17.6848 5.00281C17.6914 3.52734 17.6925 2.05187 17.6826 0.5775C17.6805 0.295313 17.8073 0.187031 18.0611 0.155312C18.4406 0.108281 18.818 0.0525 19.1953 0C20.3984 0 21.6016 0 22.8047 0Z" fill="#D83A51"/>
<path d="M19.2774 42C18.8858 41.9497 18.4942 41.8939 18.1016 41.8512C17.8128 41.8195 17.6783 41.6992 17.6816 41.3798C17.6958 39.9317 17.6947 38.4847 17.6838 37.0366C17.6816 36.6909 17.8172 36.6176 18.1333 36.6756C20.0452 37.0322 21.9592 37.0311 23.8711 36.68C24.1938 36.6209 24.3195 36.7008 24.3174 37.042C24.3064 38.5033 24.3075 39.9645 24.3174 41.4258C24.3195 41.7047 24.1981 41.8206 23.94 41.8491C23.5342 41.895 23.1295 41.9486 22.7238 41.9989H19.2785L19.2774 42Z" fill="#D83A51"/>
<path d="M40.611 13.4006C40.6208 13.5756 40.506 13.638 40.401 13.697C39.0961 14.4408 37.7891 15.1802 36.4853 15.9261C36.2611 16.0541 36.1463 16.0059 36.0621 15.7642C35.3839 13.837 34.3853 12.0925 33.0422 10.5514C32.8574 10.3392 32.9 10.2113 33.1264 10.0713C34.3777 9.29141 35.6256 8.505 36.8714 7.71531C37.0606 7.595 37.2017 7.57094 37.3603 7.76891C38.6958 9.43031 39.771 11.2438 40.5552 13.2267C40.5803 13.2902 40.5978 13.3558 40.6121 13.3995L40.611 13.4006Z" fill="#D83A51"/>
<path d="M5.69625 16.0158C5.60984 15.9742 5.50922 15.9305 5.41515 15.878C4.1639 15.1801 2.91593 14.4747 1.65922 13.7856C1.39125 13.6391 1.3289 13.4936 1.44703 13.2005C2.18531 11.3794 3.15437 9.6939 4.34875 8.1353C4.54125 7.88374 4.70531 7.83015 4.99406 7.9953C6.24859 8.71608 7.51297 9.42046 8.77953 10.1194C9.04968 10.2681 9.09781 10.3917 8.88234 10.6422C7.58187 12.1461 6.62047 13.8491 5.94781 15.7183C5.90406 15.8408 5.88984 15.9939 5.69515 16.0147L5.69625 16.0158Z" fill="#D83A51"/>
<path d="M4.86498 34.3088C4.70748 34.3219 4.64405 34.2267 4.57623 34.1425C3.20905 32.4363 2.12842 30.5659 1.34311 28.5228C1.25014 28.28 1.30373 28.1487 1.53014 28.0328C2.8317 27.3711 4.13108 26.7061 5.42608 26.0313C5.69623 25.8902 5.83514 25.9295 5.93905 26.2292C6.60514 28.1455 7.60045 29.8747 8.92717 31.4114C9.09342 31.6039 9.12842 31.7439 8.87576 31.8959C7.58951 32.6692 6.30873 33.4523 5.02467 34.23C4.9667 34.265 4.90326 34.2891 4.86389 34.3077L4.86498 34.3088Z" fill="#D83A51"/>
<path d="M37.0267 34.4564C36.9535 34.417 36.866 34.3777 36.7861 34.3263C35.5699 33.5399 34.3602 32.7447 33.1374 31.9692C32.8399 31.7811 32.8694 31.6422 33.0761 31.4038C34.3525 29.9338 35.3161 28.2778 35.9844 26.4491C36.1758 25.9274 36.1802 25.9263 36.6614 26.2063C37.8547 26.8986 39.0425 27.6008 40.2424 28.2822C40.5442 28.4539 40.6339 28.6103 40.4885 28.9581C39.701 30.8514 38.6707 32.597 37.3844 34.1917C37.2936 34.3044 37.2182 34.4488 37.0257 34.4575L37.0267 34.4564Z" fill="#D83A51"/>
<path d="M20.9847 12.1089C25.8912 12.1067 29.9097 16.0475 29.8845 20.8906C29.8572 26.0028 26.2533 29.8419 20.9956 29.8408C15.7894 29.8408 12.1395 26.0378 12.1155 20.8808C12.0925 16.0595 16.1087 12.1111 20.9847 12.1089Z" fill="#D83A51"/>
</g>
<g clip-path="url(#clip1_265_630)">
<path d="M104 19.2774V22.7227C103.872 23.7103 103.762 24.7002 103.529 25.6714C103.4 26.2085 103.38 26.2194 102.894 25.9361C101.324 25.0217 99.7573 24.1008 98.1812 23.1952C97.2833 22.6789 96.4805 23.0267 96.2442 24.0264C95.6077 26.7214 94.2853 29.0183 92.2761 30.9236C91.4842 31.675 91.5794 32.4789 92.5069 33.0772C94.0228 34.055 95.5355 35.0372 97.0481 36.0194C97.4331 36.2699 97.4353 36.307 97.1017 36.6089C94.7928 38.6903 92.158 40.1986 89.1873 41.1185C88.7302 41.2595 88.7116 41.2453 88.7105 40.7499C88.7094 38.9594 88.7116 37.1689 88.7094 35.3785C88.7072 34.1797 88.0411 33.6766 86.897 34.0113C84.2983 34.7725 81.6995 34.7692 79.1008 34.0113C77.9611 33.6788 77.2906 34.1841 77.2895 35.3806C77.2873 37.1438 77.2895 38.9069 77.2895 40.67C77.2895 41.2639 77.283 41.2694 76.7306 41.0944C73.7819 40.1592 71.158 38.6575 68.8655 36.5772C68.5599 36.3001 68.5789 36.0566 68.9223 35.8466C70.4755 34.9027 72.0341 33.9675 73.5806 33.0127C74.4009 32.5063 74.4786 31.6685 73.7928 30.987C73.7152 30.9105 73.6353 30.835 73.5566 30.7596C71.6556 28.9111 70.4033 26.6908 69.7755 24.1183C69.5075 23.0191 68.7955 22.6844 67.7881 23.1985C66.1934 24.0111 64.6009 24.8292 63.0073 25.643C62.5403 25.8814 62.513 25.8639 62.3981 25.351C62.2111 24.511 62.128 23.6535 62 22.8047V19.2774C62.1214 18.3575 62.2166 17.4344 62.4277 16.5277C62.5276 16.0975 62.7649 15.9874 63.1397 16.1974C64.7267 17.0833 66.3105 17.978 67.9041 18.8519C68.7222 19.3003 69.5272 18.9438 69.7383 18.0371C70.3814 15.2808 71.73 12.938 73.7983 11.0086C73.9602 10.8577 74.0969 10.6892 74.1723 10.477C74.3878 9.87549 74.1691 9.32752 73.5347 8.96658C71.9181 8.04892 70.2939 7.14439 68.6741 6.23221C68.2705 6.00471 68.265 5.97517 68.6052 5.65689C70.983 3.43877 73.7184 1.83533 76.8291 0.8783C77.2677 0.743768 77.2863 0.760175 77.2873 1.2283C77.2895 3.01877 77.2873 4.81033 77.2884 6.6008C77.2895 7.82361 77.9534 8.32017 79.1237 7.98002C81.7105 7.22971 84.2961 7.22752 86.8828 7.9833C88.0312 8.31908 88.7061 7.82033 88.7072 6.63033C88.7105 4.85299 88.7072 3.07564 88.7083 1.2983C88.7083 0.736112 88.7192 0.728456 89.2563 0.899081C92.2072 1.83314 94.8311 3.33596 97.1258 5.41299C97.502 5.75424 97.502 5.78049 97.0733 6.05064C95.5475 7.01314 94.0206 7.97455 92.4927 8.93486C91.5816 9.50799 91.482 10.3272 92.2553 11.0589C94.2787 12.973 95.6087 15.2808 96.2453 17.9922C96.4389 18.8147 97.0962 19.2172 97.8323 18.9711C98.0117 18.911 98.178 18.8092 98.3442 18.7152C99.8787 17.8467 101.412 16.9761 102.947 16.1077C103.381 15.8616 103.413 15.878 103.532 16.368C103.765 17.325 103.869 18.3028 103.997 19.2774H104ZM82.9989 32.2864C89.2967 32.1967 94.3148 27.2825 94.2448 21.0831C94.1639 13.9617 89.0561 9.83392 83.0427 9.81096C77.0259 9.78799 71.8405 13.9049 71.7552 21.081C71.6819 27.265 76.6956 32.1956 83 32.2864H82.9989Z" fill="#D83A51"/>
<path d="M84.8047 0C85.182 0.0503125 85.5594 0.106094 85.9378 0.149844C86.1959 0.180469 86.3173 0.293125 86.3151 0.573125C86.3053 2.04859 86.3064 3.52406 86.313 4.99844C86.3141 5.29922 86.1948 5.3725 85.9105 5.32109C83.9712 4.97 82.0298 4.96234 80.0906 5.32766C79.8128 5.38016 79.6826 5.30797 79.6848 5.00281C79.6914 3.52734 79.6925 2.05187 79.6826 0.5775C79.6805 0.295313 79.8073 0.187031 80.0611 0.155312C80.4406 0.108281 80.818 0.0525 81.1953 0C82.3984 0 83.6016 0 84.8047 0Z" fill="#D83A51"/>
<path d="M81.2774 42C80.8858 41.9497 80.4942 41.8939 80.1016 41.8512C79.8128 41.8195 79.6783 41.6992 79.6816 41.3798C79.6958 39.9317 79.6947 38.4847 79.6838 37.0366C79.6816 36.6909 79.8172 36.6176 80.1333 36.6756C82.0452 37.0322 83.9592 37.0311 85.8711 36.68C86.1938 36.6209 86.3195 36.7008 86.3174 37.042C86.3064 38.5033 86.3075 39.9645 86.3174 41.4258C86.3195 41.7047 86.1981 41.8206 85.94 41.8491C85.5342 41.895 85.1295 41.9486 84.7238 41.9989H81.2785L81.2774 42Z" fill="#D83A51"/>
<path d="M102.611 13.4006C102.621 13.5756 102.506 13.638 102.401 13.697C101.096 14.4408 99.789 15.1802 98.4853 15.9261C98.2611 16.0541 98.1462 16.0059 98.062 15.7642C97.3839 13.837 96.3853 12.0925 95.0422 10.5514C94.8573 10.3392 94.9 10.2113 95.1264 10.0713C96.3776 9.29141 97.6256 8.505 98.8714 7.71531C99.0606 7.595 99.2017 7.57094 99.3603 7.76891C100.696 9.43031 101.771 11.2438 102.555 13.2267C102.58 13.2902 102.598 13.3558 102.612 13.3995L102.611 13.4006Z" fill="#D83A51"/>
<path d="M67.6962 16.0158C67.6098 15.9742 67.5092 15.9305 67.4152 15.878C66.1639 15.1801 64.9159 14.4747 63.6592 13.7856C63.3912 13.6391 63.3289 13.4936 63.447 13.2005C64.1853 11.3794 65.1544 9.6939 66.3487 8.1353C66.5412 7.88374 66.7053 7.83015 66.9941 7.9953C68.2486 8.71608 69.513 9.42046 70.7795 10.1194C71.0497 10.2681 71.0978 10.3917 70.8823 10.6422C69.5819 12.1461 68.6205 13.8491 67.9478 15.7183C67.9041 15.8408 67.8898 15.9939 67.6952 16.0147L67.6962 16.0158Z" fill="#D83A51"/>
<path d="M66.865 34.3088C66.7075 34.3219 66.644 34.2267 66.5762 34.1425C65.209 32.4363 64.1284 30.5659 63.3431 28.5228C63.2501 28.28 63.3037 28.1487 63.5301 28.0328C64.8317 27.3711 66.1311 26.7061 67.4261 26.0313C67.6962 25.8902 67.8351 25.9295 67.939 26.2292C68.6051 28.1455 69.6005 29.8747 70.9272 31.4114C71.0934 31.6039 71.1284 31.7439 70.8758 31.8959C69.5895 32.6692 68.3087 33.4523 67.0247 34.23C66.9667 34.265 66.9033 34.2891 66.8639 34.3077L66.865 34.3088Z" fill="#D83A51"/>
<path d="M99.0267 34.4564C98.9535 34.417 98.866 34.3777 98.7861 34.3263C97.5699 33.5399 96.3602 32.7447 95.1374 31.9692C94.8399 31.7811 94.8694 31.6422 95.0761 31.4038C96.3525 29.9338 97.3161 28.2778 97.9844 26.4491C98.1758 25.9274 98.1802 25.9263 98.6614 26.2063C99.8547 26.8986 101.043 27.6008 102.242 28.2822C102.544 28.4539 102.634 28.6103 102.488 28.9581C101.701 30.8514 100.671 32.597 99.3844 34.1917C99.2936 34.3044 99.2182 34.4488 99.0257 34.4575L99.0267 34.4564Z" fill="#D83A51"/>
<path d="M82.9847 12.1089C87.8912 12.1067 91.9097 16.0475 91.8845 20.8906C91.8572 26.0028 88.2533 29.8419 82.9956 29.8408C77.7894 29.8408 74.1395 26.0378 74.1155 20.8808C74.0925 16.0595 78.1087 12.1111 82.9847 12.1089Z" fill="#D83A51"/>
</g>
<g clip-path="url(#clip2_265_630)">
<path d="M166 19.2774V22.7227C165.872 23.7103 165.762 24.7002 165.529 25.6714C165.4 26.2085 165.38 26.2194 164.894 25.9361C163.324 25.0217 161.757 24.1008 160.181 23.1952C159.283 22.6789 158.48 23.0267 158.244 24.0264C157.608 26.7214 156.285 29.0183 154.276 30.9236C153.484 31.675 153.579 32.4789 154.507 33.0772C156.023 34.055 157.535 35.0372 159.048 36.0194C159.433 36.2699 159.435 36.307 159.102 36.6089C156.793 38.6903 154.158 40.1986 151.187 41.1185C150.73 41.2595 150.712 41.2453 150.71 40.7499C150.709 38.9594 150.712 37.1689 150.709 35.3785C150.707 34.1797 150.041 33.6766 148.897 34.0113C146.298 34.7725 143.7 34.7692 141.101 34.0113C139.961 33.6788 139.291 34.1841 139.29 35.3806C139.287 37.1438 139.29 38.9069 139.29 40.67C139.29 41.2639 139.283 41.2694 138.731 41.0944C135.782 40.1592 133.158 38.6575 130.865 36.5772C130.56 36.3001 130.579 36.0566 130.922 35.8466C132.475 34.9027 134.034 33.9675 135.581 33.0127C136.401 32.5063 136.479 31.6685 135.793 30.987C135.715 30.9105 135.635 30.835 135.557 30.7596C133.656 28.9111 132.403 26.6908 131.775 24.1183C131.507 23.0191 130.795 22.6844 129.788 23.1985C128.193 24.0111 126.601 24.8292 125.007 25.643C124.54 25.8814 124.513 25.8639 124.398 25.351C124.211 24.511 124.128 23.6535 124 22.8047V19.2774C124.121 18.3575 124.217 17.4344 124.428 16.5277C124.528 16.0975 124.765 15.9874 125.14 16.1974C126.727 17.0833 128.31 17.978 129.904 18.8519C130.722 19.3003 131.527 18.9438 131.738 18.0371C132.381 15.2808 133.73 12.938 135.798 11.0086C135.96 10.8577 136.097 10.6892 136.172 10.477C136.388 9.87549 136.169 9.32752 135.535 8.96658C133.918 8.04893 132.294 7.14439 130.674 6.23221C130.27 6.00471 130.265 5.97517 130.605 5.65689C132.983 3.43877 135.718 1.83533 138.829 0.8783C139.268 0.743768 139.286 0.760175 139.287 1.2283C139.29 3.01877 139.287 4.81033 139.288 6.6008C139.29 7.82361 139.953 8.32017 141.124 7.98002C143.71 7.22971 146.296 7.22752 148.883 7.9833C150.031 8.31908 150.706 7.82033 150.707 6.63033C150.71 4.85299 150.707 3.07564 150.708 1.2983C150.708 0.736112 150.719 0.728456 151.256 0.899081C154.207 1.83314 156.831 3.33596 159.126 5.41299C159.502 5.75424 159.502 5.78049 159.073 6.05064C157.548 7.01314 156.021 7.97455 154.493 8.93486C153.582 9.50799 153.482 10.3272 154.255 11.0589C156.279 12.973 157.609 15.2808 158.245 17.9922C158.439 18.8147 159.096 19.2172 159.832 18.9711C160.012 18.911 160.178 18.8092 160.344 18.7152C161.879 17.8467 163.412 16.9761 164.947 16.1077C165.381 15.8616 165.413 15.878 165.532 16.368C165.765 17.325 165.869 18.3028 165.997 19.2774H166ZM144.999 32.2864C151.297 32.1967 156.315 27.2825 156.245 21.0831C156.164 13.9617 151.056 9.83392 145.043 9.81096C139.026 9.78799 133.84 13.9049 133.755 21.081C133.682 27.265 138.696 32.1956 145 32.2864H144.999Z" fill="#D83A51"/>
<path d="M146.805 0C147.182 0.0503125 147.559 0.106094 147.938 0.149844C148.196 0.180469 148.317 0.293125 148.315 0.573125C148.305 2.04859 148.306 3.52406 148.313 4.99844C148.314 5.29922 148.195 5.3725 147.91 5.32109C145.971 4.97 144.03 4.96234 142.091 5.32766C141.813 5.38016 141.683 5.30797 141.685 5.00281C141.691 3.52734 141.692 2.05187 141.683 0.5775C141.68 0.295313 141.807 0.187031 142.061 0.155312C142.441 0.108281 142.818 0.0525 143.195 0C144.398 0 145.602 0 146.805 0Z" fill="#D83A51"/>
<path d="M143.277 42C142.886 41.9497 142.494 41.8939 142.102 41.8512C141.813 41.8195 141.678 41.6992 141.682 41.3798C141.696 39.9317 141.695 38.4847 141.684 37.0366C141.682 36.6909 141.817 36.6176 142.133 36.6756C144.045 37.0322 145.959 37.0311 147.871 36.68C148.194 36.6209 148.32 36.7008 148.317 37.042C148.306 38.5033 148.308 39.9645 148.317 41.4258C148.32 41.7047 148.198 41.8206 147.94 41.8491C147.534 41.895 147.13 41.9486 146.724 41.9989H143.278L143.277 42Z" fill="#D83A51"/>
<path d="M164.611 13.4006C164.621 13.5756 164.506 13.638 164.401 13.697C163.096 14.4408 161.789 15.1802 160.485 15.9261C160.261 16.0541 160.146 16.0059 160.062 15.7642C159.384 13.837 158.385 12.0925 157.042 10.5514C156.857 10.3392 156.9 10.2113 157.126 10.0713C158.378 9.29141 159.626 8.505 160.871 7.71531C161.061 7.595 161.202 7.57094 161.36 7.76891C162.696 9.43031 163.771 11.2438 164.555 13.2267C164.58 13.2902 164.598 13.3558 164.612 13.3995L164.611 13.4006Z" fill="#D83A51"/>
<path d="M129.696 16.0158C129.61 15.9742 129.509 15.9305 129.415 15.878C128.164 15.1801 126.916 14.4747 125.659 13.7856C125.391 13.6391 125.329 13.4936 125.447 13.2005C126.185 11.3794 127.154 9.6939 128.349 8.1353C128.541 7.88374 128.705 7.83015 128.994 7.9953C130.249 8.71608 131.513 9.42046 132.78 10.1194C133.05 10.2681 133.098 10.3917 132.882 10.6422C131.582 12.1461 130.62 13.8491 129.948 15.7183C129.904 15.8408 129.89 15.9939 129.695 16.0147L129.696 16.0158Z" fill="#D83A51"/>
<path d="M128.865 34.3088C128.707 34.3219 128.644 34.2267 128.576 34.1425C127.209 32.4363 126.128 30.5659 125.343 28.5228C125.25 28.28 125.304 28.1487 125.53 28.0328C126.832 27.3711 128.131 26.7061 129.426 26.0313C129.696 25.8902 129.835 25.9295 129.939 26.2292C130.605 28.1455 131.6 29.8747 132.927 31.4114C133.093 31.6039 133.128 31.7439 132.876 31.8959C131.59 32.6692 130.309 33.4523 129.025 34.23C128.967 34.265 128.903 34.2891 128.864 34.3077L128.865 34.3088Z" fill="#D83A51"/>
<path d="M161.027 34.4564C160.953 34.417 160.866 34.3777 160.786 34.3263C159.57 33.5399 158.36 32.7447 157.137 31.9692C156.84 31.7811 156.869 31.6422 157.076 31.4038C158.353 29.9338 159.316 28.2778 159.984 26.4491C160.176 25.9274 160.18 25.9263 160.661 26.2063C161.855 26.8986 163.043 27.6008 164.242 28.2822C164.544 28.4539 164.634 28.6103 164.488 28.9581C163.701 30.8514 162.671 32.597 161.384 34.1917C161.294 34.3044 161.218 34.4488 161.026 34.4575L161.027 34.4564Z" fill="#D83A51"/>
<path d="M144.985 12.1089C149.891 12.1067 153.91 16.0475 153.885 20.8906C153.857 26.0028 150.253 29.8419 144.996 29.8408C139.789 29.8408 136.14 26.0378 136.115 20.8808C136.092 16.0595 140.109 12.1111 144.985 12.1089Z" fill="#D83A51"/>
</g>
<g clip-path="url(#clip3_265_630)">
<path d="M228 19.2774V22.7227C227.872 23.7103 227.762 24.7002 227.529 25.6714C227.4 26.2085 227.38 26.2194 226.894 25.9361C225.324 25.0217 223.757 24.1008 222.181 23.1952C221.283 22.6789 220.48 23.0267 220.244 24.0264C219.608 26.7214 218.285 29.0183 216.276 30.9236C215.484 31.675 215.579 32.4789 216.507 33.0772C218.023 34.055 219.535 35.0372 221.048 36.0194C221.433 36.2699 221.435 36.307 221.102 36.6089C218.793 38.6903 216.158 40.1986 213.187 41.1185C212.73 41.2595 212.712 41.2453 212.71 40.7499C212.709 38.9594 212.712 37.1689 212.709 35.3785C212.707 34.1797 212.041 33.6766 210.897 34.0113C208.298 34.7725 205.7 34.7692 203.101 34.0113C201.961 33.6788 201.291 34.1841 201.29 35.3806C201.287 37.1438 201.29 38.9069 201.29 40.67C201.29 41.2639 201.283 41.2694 200.731 41.0944C197.782 40.1592 195.158 38.6575 192.865 36.5772C192.56 36.3001 192.579 36.0566 192.922 35.8466C194.475 34.9027 196.034 33.9675 197.581 33.0127C198.401 32.5063 198.479 31.6685 197.793 30.987C197.715 30.9105 197.635 30.835 197.557 30.7596C195.656 28.9111 194.403 26.6908 193.775 24.1183C193.507 23.0191 192.795 22.6844 191.788 23.1985C190.193 24.0111 188.601 24.8292 187.007 25.643C186.54 25.8814 186.513 25.8639 186.398 25.351C186.211 24.511 186.128 23.6535 186 22.8047V19.2774C186.121 18.3575 186.217 17.4344 186.428 16.5277C186.528 16.0975 186.765 15.9874 187.14 16.1974C188.727 17.0833 190.31 17.978 191.904 18.8519C192.722 19.3003 193.527 18.9438 193.738 18.0371C194.381 15.2808 195.73 12.938 197.798 11.0086C197.96 10.8577 198.097 10.6892 198.172 10.477C198.388 9.87549 198.169 9.32752 197.535 8.96658C195.918 8.04892 194.294 7.14439 192.674 6.23221C192.27 6.00471 192.265 5.97517 192.605 5.65689C194.983 3.43877 197.718 1.83533 200.829 0.8783C201.268 0.743768 201.286 0.760175 201.287 1.2283C201.29 3.01877 201.287 4.81033 201.288 6.6008C201.29 7.82361 201.953 8.32017 203.124 7.98002C205.71 7.22971 208.296 7.22752 210.883 7.9833C212.031 8.31908 212.706 7.82033 212.707 6.63033C212.71 4.85299 212.707 3.07564 212.708 1.2983C212.708 0.736112 212.719 0.728456 213.256 0.899081C216.207 1.83314 218.831 3.33596 221.126 5.41299C221.502 5.75424 221.502 5.78049 221.073 6.05064C219.548 7.01314 218.021 7.97455 216.493 8.93486C215.582 9.50799 215.482 10.3272 216.255 11.0589C218.279 12.973 219.609 15.2808 220.245 17.9922C220.439 18.8147 221.096 19.2172 221.832 18.9711C222.012 18.911 222.178 18.8092 222.344 18.7152C223.879 17.8467 225.412 16.9761 226.947 16.1077C227.381 15.8616 227.413 15.878 227.532 16.368C227.765 17.325 227.869 18.3028 227.997 19.2774H228ZM206.999 32.2864C213.297 32.1967 218.315 27.2825 218.245 21.0831C218.164 13.9617 213.056 9.83392 207.043 9.81096C201.026 9.78799 195.84 13.9049 195.755 21.081C195.682 27.265 200.696 32.1956 207 32.2864H206.999Z" fill="#D83A51"/>
<path d="M208.805 0C209.182 0.0503125 209.559 0.106094 209.938 0.149844C210.196 0.180469 210.317 0.293125 210.315 0.573125C210.305 2.04859 210.306 3.52406 210.313 4.99844C210.314 5.29922 210.195 5.3725 209.91 5.32109C207.971 4.97 206.03 4.96234 204.091 5.32766C203.813 5.38016 203.683 5.30797 203.685 5.00281C203.691 3.52734 203.692 2.05187 203.683 0.5775C203.68 0.295313 203.807 0.187031 204.061 0.155312C204.441 0.108281 204.818 0.0525 205.195 0C206.398 0 207.602 0 208.805 0Z" fill="#D83A51"/>
<path d="M205.277 42C204.886 41.9497 204.494 41.8939 204.102 41.8512C203.813 41.8195 203.678 41.6992 203.682 41.3798C203.696 39.9317 203.695 38.4847 203.684 37.0366C203.682 36.6909 203.817 36.6176 204.133 36.6756C206.045 37.0322 207.959 37.0311 209.871 36.68C210.194 36.6209 210.32 36.7008 210.317 37.042C210.306 38.5033 210.308 39.9645 210.317 41.4258C210.32 41.7047 210.198 41.8206 209.94 41.8491C209.534 41.895 209.13 41.9486 208.724 41.9989H205.278L205.277 42Z" fill="#D83A51"/>
<path d="M226.611 13.4006C226.621 13.5756 226.506 13.638 226.401 13.697C225.096 14.4408 223.789 15.1802 222.485 15.9261C222.261 16.0541 222.146 16.0059 222.062 15.7642C221.384 13.837 220.385 12.0925 219.042 10.5514C218.857 10.3392 218.9 10.2113 219.126 10.0713C220.378 9.29141 221.626 8.505 222.871 7.71531C223.061 7.595 223.202 7.57094 223.36 7.76891C224.696 9.43031 225.771 11.2438 226.555 13.2267C226.58 13.2902 226.598 13.3558 226.612 13.3995L226.611 13.4006Z" fill="#D83A51"/>
<path d="M191.696 16.0158C191.61 15.9742 191.509 15.9305 191.415 15.878C190.164 15.1801 188.916 14.4747 187.659 13.7856C187.391 13.6391 187.329 13.4936 187.447 13.2005C188.185 11.3794 189.154 9.6939 190.349 8.1353C190.541 7.88374 190.705 7.83015 190.994 7.9953C192.249 8.71608 193.513 9.42046 194.78 10.1194C195.05 10.2681 195.098 10.3917 194.882 10.6422C193.582 12.1461 192.62 13.8491 191.948 15.7183C191.904 15.8408 191.89 15.9939 191.695 16.0147L191.696 16.0158Z" fill="#D83A51"/>
<path d="M190.865 34.3088C190.707 34.3219 190.644 34.2267 190.576 34.1425C189.209 32.4363 188.128 30.5659 187.343 28.5228C187.25 28.28 187.304 28.1487 187.53 28.0328C188.832 27.3711 190.131 26.7061 191.426 26.0313C191.696 25.8902 191.835 25.9295 191.939 26.2292C192.605 28.1455 193.6 29.8747 194.927 31.4114C195.093 31.6039 195.128 31.7439 194.876 31.8959C193.59 32.6692 192.309 33.4523 191.025 34.23C190.967 34.265 190.903 34.2891 190.864 34.3077L190.865 34.3088Z" fill="#D83A51"/>
<path d="M223.027 34.4564C222.953 34.417 222.866 34.3777 222.786 34.3263C221.57 33.5399 220.36 32.7447 219.137 31.9692C218.84 31.7811 218.869 31.6422 219.076 31.4038C220.353 29.9338 221.316 28.2778 221.984 26.4491C222.176 25.9274 222.18 25.9263 222.661 26.2063C223.855 26.8986 225.043 27.6008 226.242 28.2822C226.544 28.4539 226.634 28.6103 226.488 28.9581C225.701 30.8514 224.671 32.597 223.384 34.1917C223.294 34.3044 223.218 34.4488 223.026 34.4575L223.027 34.4564Z" fill="#D83A51"/>
<path d="M206.985 12.1089C211.891 12.1067 215.91 16.0475 215.885 20.8906C215.857 26.0028 212.253 29.8419 206.996 29.8408C201.789 29.8408 198.14 26.0378 198.115 20.8808C198.092 16.0595 202.109 12.1111 206.985 12.1089Z" fill="#D83A51"/>
</g>
<g clip-path="url(#clip4_265_630)">
<path d="M290 19.2774V22.7227C289.872 23.7103 289.762 24.7002 289.529 25.6714C289.4 26.2085 289.38 26.2194 288.894 25.9361C287.324 25.0217 285.757 24.1008 284.181 23.1952C283.283 22.6789 282.48 23.0267 282.244 24.0264C281.608 26.7214 280.285 29.0183 278.276 30.9236C277.484 31.675 277.579 32.4789 278.507 33.0772C280.023 34.055 281.535 35.0372 283.048 36.0194C283.433 36.2699 283.435 36.307 283.102 36.6089C280.793 38.6903 278.158 40.1986 275.187 41.1185C274.73 41.2595 274.712 41.2453 274.71 40.7499C274.709 38.9594 274.712 37.1689 274.709 35.3785C274.707 34.1797 274.041 33.6766 272.897 34.0113C270.298 34.7725 267.7 34.7692 265.101 34.0113C263.961 33.6788 263.291 34.1841 263.29 35.3806C263.287 37.1438 263.29 38.9069 263.29 40.67C263.29 41.2639 263.283 41.2694 262.731 41.0944C259.782 40.1592 257.158 38.6575 254.865 36.5772C254.56 36.3001 254.579 36.0566 254.922 35.8466C256.475 34.9027 258.034 33.9675 259.581 33.0127C260.401 32.5063 260.479 31.6685 259.793 30.987C259.715 30.9105 259.635 30.835 259.557 30.7596C257.656 28.9111 256.403 26.6908 255.775 24.1183C255.507 23.0191 254.795 22.6844 253.788 23.1985C252.193 24.0111 250.601 24.8292 249.007 25.643C248.54 25.8814 248.513 25.8639 248.398 25.351C248.211 24.511 248.128 23.6535 248 22.8047V19.2774C248.121 18.3575 248.217 17.4344 248.428 16.5277C248.528 16.0975 248.765 15.9874 249.14 16.1974C250.727 17.0833 252.31 17.978 253.904 18.8519C254.722 19.3003 255.527 18.9438 255.738 18.0371C256.381 15.2808 257.73 12.938 259.798 11.0086C259.96 10.8577 260.097 10.6892 260.172 10.477C260.388 9.87549 260.169 9.32752 259.535 8.96658C257.918 8.04892 256.294 7.14439 254.674 6.23221C254.27 6.00471 254.265 5.97517 254.605 5.65689C256.983 3.43877 259.718 1.83533 262.829 0.8783C263.268 0.743768 263.286 0.760175 263.287 1.2283C263.29 3.01877 263.287 4.81033 263.288 6.6008C263.29 7.82361 263.953 8.32017 265.124 7.98002C267.71 7.22971 270.296 7.22752 272.883 7.9833C274.031 8.31908 274.706 7.82033 274.707 6.63033C274.71 4.85299 274.707 3.07564 274.708 1.2983C274.708 0.736112 274.719 0.728456 275.256 0.899081C278.207 1.83314 280.831 3.33596 283.126 5.41299C283.502 5.75424 283.502 5.78049 283.073 6.05064C281.548 7.01314 280.021 7.97455 278.493 8.93486C277.582 9.50799 277.482 10.3272 278.255 11.0589C280.279 12.973 281.609 15.2808 282.245 17.9922C282.439 18.8147 283.096 19.2172 283.832 18.9711C284.012 18.911 284.178 18.8092 284.344 18.7152C285.879 17.8467 287.412 16.9761 288.947 16.1077C289.381 15.8616 289.413 15.878 289.532 16.368C289.765 17.325 289.869 18.3028 289.997 19.2774H290ZM268.999 32.2864C275.297 32.1967 280.315 27.2825 280.245 21.0831C280.164 13.9617 275.056 9.83392 269.043 9.81096C263.026 9.78799 257.84 13.9049 257.755 21.081C257.682 27.265 262.696 32.1956 269 32.2864H268.999Z" fill="#D83A51"/>
<path d="M270.805 0C271.182 0.0503125 271.559 0.106094 271.938 0.149844C272.196 0.180469 272.317 0.293125 272.315 0.573125C272.305 2.04859 272.306 3.52406 272.313 4.99844C272.314 5.29922 272.195 5.3725 271.91 5.32109C269.971 4.97 268.03 4.96234 266.091 5.32766C265.813 5.38016 265.683 5.30797 265.685 5.00281C265.691 3.52734 265.692 2.05187 265.683 0.5775C265.68 0.295313 265.807 0.187031 266.061 0.155312C266.441 0.108281 266.818 0.0525 267.195 0C268.398 0 269.602 0 270.805 0Z" fill="#D83A51"/>
<path d="M267.277 42C266.886 41.9497 266.494 41.8939 266.102 41.8512C265.813 41.8195 265.678 41.6992 265.682 41.3798C265.696 39.9317 265.695 38.4847 265.684 37.0366C265.682 36.6909 265.817 36.6176 266.133 36.6756C268.045 37.0322 269.959 37.0311 271.871 36.68C272.194 36.6209 272.32 36.7008 272.317 37.042C272.306 38.5033 272.308 39.9645 272.317 41.4258C272.32 41.7047 272.198 41.8206 271.94 41.8491C271.534 41.895 271.13 41.9486 270.724 41.9989H267.278L267.277 42Z" fill="#D83A51"/>
<path d="M288.611 13.4006C288.621 13.5756 288.506 13.638 288.401 13.697C287.096 14.4408 285.789 15.1802 284.485 15.9261C284.261 16.0541 284.146 16.0059 284.062 15.7642C283.384 13.837 282.385 12.0925 281.042 10.5514C280.857 10.3392 280.9 10.2113 281.126 10.0713C282.378 9.29141 283.626 8.505 284.871 7.71531C285.061 7.595 285.202 7.57094 285.36 7.76891C286.696 9.43031 287.771 11.2438 288.555 13.2267C288.58 13.2902 288.598 13.3558 288.612 13.3995L288.611 13.4006Z" fill="#D83A51"/>
<path d="M253.696 16.0158C253.61 15.9742 253.509 15.9305 253.415 15.878C252.164 15.1801 250.916 14.4747 249.659 13.7856C249.391 13.6391 249.329 13.4936 249.447 13.2005C250.185 11.3794 251.154 9.6939 252.349 8.1353C252.541 7.88374 252.705 7.83015 252.994 7.9953C254.249 8.71608 255.513 9.42046 256.78 10.1194C257.05 10.2681 257.098 10.3917 256.882 10.6422C255.582 12.1461 254.62 13.8491 253.948 15.7183C253.904 15.8408 253.89 15.9939 253.695 16.0147L253.696 16.0158Z" fill="#D83A51"/>
<path d="M252.865 34.3088C252.707 34.3219 252.644 34.2267 252.576 34.1425C251.209 32.4363 250.128 30.5659 249.343 28.5228C249.25 28.28 249.304 28.1487 249.53 28.0328C250.832 27.3711 252.131 26.7061 253.426 26.0313C253.696 25.8902 253.835 25.9295 253.939 26.2292C254.605 28.1455 255.6 29.8747 256.927 31.4114C257.093 31.6039 257.128 31.7439 256.876 31.8959C255.59 32.6692 254.309 33.4523 253.025 34.23C252.967 34.265 252.903 34.2891 252.864 34.3077L252.865 34.3088Z" fill="#D83A51"/>
<path d="M285.027 34.4564C284.953 34.417 284.866 34.3777 284.786 34.3263C283.57 33.5399 282.36 32.7447 281.137 31.9692C280.84 31.7811 280.869 31.6422 281.076 31.4038C282.353 29.9338 283.316 28.2778 283.984 26.4491C284.176 25.9274 284.18 25.9263 284.661 26.2063C285.855 26.8986 287.043 27.6008 288.242 28.2822C288.544 28.4539 288.634 28.6103 288.488 28.9581C287.701 30.8514 286.671 32.597 285.384 34.1917C285.294 34.3044 285.218 34.4488 285.026 34.4575L285.027 34.4564Z" fill="#D83A51"/>
<path d="M268.985 12.1089C273.891 12.1067 277.91 16.0475 277.885 20.8906C277.857 26.0028 274.253 29.8419 268.996 29.8408C263.789 29.8408 260.14 26.0378 260.115 20.8808C260.092 16.0595 264.109 12.1111 268.985 12.1089Z" fill="#D83A51"/>
</g>
<defs>
<clipPath id="clip0_265_630">
<rect width="42" height="42" fill="white"/>
</clipPath>
<clipPath id="clip1_265_630">
<rect width="42" height="42" fill="white" transform="translate(62)"/>
</clipPath>
<clipPath id="clip2_265_630">
<rect width="42" height="42" fill="white" transform="translate(124)"/>
</clipPath>
<clipPath id="clip3_265_630">
<rect width="42" height="42" fill="white" transform="translate(186)"/>
</clipPath>
<clipPath id="clip4_265_630">
<rect width="42" height="42" fill="white" transform="translate(248)"/>
</clipPath>
</defs>
</svg>
